<?xml version="1.0" encoding="UTF-8"?>
<!DOCTYPE svg PUBLIC "-//W3C//DTD SVG 1.1//EN" "http://www.w3.org/Graphics/SVG/1.1/DTD/svg11.dtd">
<svg xmlns="http://www.w3.org/2000/svg" version="1.1" width="1978px" height="2006px"
     style="shape-rendering:geometricPrecision; text-rendering:geometricPrecision; image-rendering:optimizeQuality; fill-rule:evenodd; clip-rule:evenodd"
     xmlns:xlink="http://www.w3.org/1999/xlink">

  <style>
    path {
    fill: #000000;
    }

    @media (prefers-color-scheme: dark) {
    path {
    fill: #FFFFFF;
    }
    }
  </style>
  <g>
    <path
      style="opacity:0.998"
      d="M -0.5,-0.5 C 193.5,-0.5 387.5,-0.5 581.5,-0.5C 712.812,131.479 844.479,263.146 976.5,394.5C 1108.52,263.146 1240.19,131.479 1371.5,-0.5C 1573.5,-0.5 1775.5,-0.5 1977.5,-0.5C 1977.5,668.167 1977.5,1336.83 1977.5,2005.5C 1775.83,2005.5 1574.17,2005.5 1372.5,2005.5C 1372.67,1843.17 1372.5,1680.83 1372,1518.5C 1240.32,1650.35 1108.49,1782.01 976.5,1913.5C 844.514,1782.01 712.68,1650.35 581,1518.5C 580.5,1680.83 580.333,1843.17 580.5,2005.5C 386.833,2005.5 193.167,2005.5 -0.5,2005.5C -0.5,1336.83 -0.5,668.167 -0.5,-0.5 Z M 263.5,477.5 C 284.887,478.594 306.22,480.427 327.5,483C 342.768,484.305 356.101,489.972 367.5,500C 393.468,529.635 421.134,557.635 450.5,584C 456.284,589.115 462.618,593.448 469.5,597C 478.952,600.504 488.285,600.171 497.5,596C 511.141,587.369 523.308,576.869 534,564.5C 551.132,543.701 569.965,524.534 590.5,507C 605.557,496.759 622.223,491.092 640.5,490C 670.481,488.885 700.481,488.385 730.5,488.5C 816.666,489.212 902.833,489.878 989,490.5C 1101.16,489.158 1213.33,488.658 1325.5,489C 1348.09,488.81 1368.76,494.81 1387.5,507C 1407.37,523.868 1425.53,542.368 1442,562.5C 1453.36,575.533 1466.19,586.699 1480.5,596C 1491.33,600.924 1502,600.591 1512.5,595C 1535.53,576.644 1557.36,556.811 1578,535.5C 1588.8,523.033 1599.96,510.867 1611.5,499C 1616.83,494.329 1622.83,490.663 1629.5,488C 1655.73,481.387 1682.4,478.221 1709.5,478.5C 1718.52,478.644 1727.52,479.144 1736.5,480C 1752.92,481.939 1763.42,490.772 1768,506.5C 1772.49,524.558 1775.15,542.891 1776,561.5C 1780.87,633.253 1783.7,705.086 1784.5,777C 1786.68,847.075 1773.85,914.242 1746,978.5C 1727.19,1015.98 1701.03,1047.48 1667.5,1073C 1623.13,1105.7 1575.46,1133.03 1524.5,1155C 1463.95,1179.07 1407.62,1171.74 1355.5,1133C 1315.49,1096.06 1312.32,1056.22 1346,1013.5C 1351.5,1008 1357,1002.5 1362.5,997C 1383.79,980.714 1404.79,964.047 1425.5,947C 1434.7,938.137 1443.53,928.97 1452,919.5C 1461.21,903.343 1460.54,887.677 1450,872.5C 1437.8,860.454 1423.97,858.287 1408.5,866C 1401.55,870.615 1394.88,875.615 1388.5,881C 1362.2,903.628 1336.2,926.628 1310.5,950C 1284.5,971.333 1258.5,992.667 1232.5,1014C 1216.92,1026.79 1211.76,1042.96 1217,1062.5C 1219.08,1069.08 1221.75,1075.41 1225,1081.5C 1253.4,1123.92 1286.9,1162.08 1325.5,1196C 1341.88,1210.04 1358.54,1223.71 1375.5,1237C 1414.98,1264.25 1455.32,1290.25 1496.5,1315C 1514.17,1327.33 1531.83,1339.67 1549.5,1352C 1556.62,1357.44 1561.78,1364.27 1565,1372.5C 1566.17,1377.98 1565.17,1382.98 1562,1387.5C 1554.64,1395.93 1545.48,1401.43 1534.5,1404C 1512.05,1409.92 1489.39,1410.92 1466.5,1407C 1436.59,1402.27 1407.59,1394.27 1379.5,1383C 1346.58,1371.21 1315.25,1356.21 1285.5,1338C 1224.58,1297.75 1165.91,1254.42 1109.5,1208C 1106.17,1206 1102.83,1204 1099.5,1202C 1093.92,1200.53 1089.09,1201.7 1085,1205.5C 1082.81,1208.55 1081.14,1211.89 1080,1215.5C 1071.35,1241.31 1067.85,1267.81 1069.5,1295C 1070.63,1343.94 1077.47,1392.11 1090,1439.5C 1095.14,1458.26 1101.48,1476.59 1109,1494.5C 1117.86,1513.42 1126.53,1532.42 1135,1551.5C 1142.49,1570.78 1139.16,1587.78 1125,1602.5C 1086.77,1639.77 1041.27,1653.27 988.5,1643C 981.773,1640.8 975.439,1637.8 969.5,1634C 951.729,1617.63 938.562,1598.13 930,1575.5C 924.729,1559.08 920.395,1542.41 917,1525.5C 908.255,1472.95 900.255,1420.28 893,1367.5C 888.927,1324.43 884.26,1281.43 879,1238.5C 878.253,1231.25 875.753,1224.75 871.5,1219C 864.772,1215.44 858.439,1216.1 852.5,1221C 802.943,1261.11 751.61,1298.78 698.5,1334C 644.173,1367.32 585.84,1390.99 523.5,1405C 500.074,1410.13 476.574,1410.63 453,1406.5C 442.448,1404.43 432.615,1400.6 423.5,1395C 413.408,1388.06 410.574,1378.89 415,1367.5C 418.754,1361.74 423.254,1356.58 428.5,1352C 469.135,1322.68 511.135,1295.34 554.5,1270C 607.373,1235.49 655.873,1195.33 700,1149.5C 718.48,1128.02 735.813,1105.69 752,1082.5C 769.971,1053.4 765.471,1028.56 738.5,1008C 684.325,964.501 631.325,919.501 579.5,873C 571.412,866.122 562.078,862.289 551.5,861.5C 536.423,862.473 526.256,870.14 521,884.5C 516.994,896.122 518.328,907.122 525,917.5C 531.008,925.988 537.841,933.822 545.5,941C 568.589,960.759 592.256,979.759 616.5,998C 634.347,1013.18 646.514,1032.01 653,1054.5C 657.535,1078.89 651.868,1100.55 636,1119.5C 609.144,1146.68 576.644,1162.84 538.5,1168C 514.257,1170.68 490.59,1168.01 467.5,1160C 427.936,1145.55 390.602,1126.88 355.5,1104C 329.803,1088.31 305.803,1070.31 283.5,1050C 247.958,1015.11 224.125,973.278 212,924.5C 198.732,879.624 192.565,833.791 193.5,787C 193.687,707.047 196.854,627.213 203,547.5C 203.607,529.792 207.274,512.792 214,496.5C 218.744,488.038 225.911,482.872 235.5,481C 244.959,479.636 254.292,478.47 263.5,477.5 Z"
    />
  </g>
</svg>
